<svg width="34" height="34" viewBox="0 0 34 34" fill="none" xmlns="http://www.w3.org/2000/svg">
<rect x="0.5" y="0.5" width="33" height="33" rx="16.5" fill="#F3F3F3"/>
<rect x="0.5" y="0.5" width="33" height="33" rx="16.5" stroke="#1759CA"/>
<g clip-path="url(#clip0_10162_184)">
<path d="M12.9927 25.9785C16.2993 25.9785 18.9854 23.3777 18.9854 20.1604C18.9854 16.9502 16.3066 14.3423 12.9927 14.3423C9.67883 14.3494 7 16.9502 7 20.1604C7 23.3706 9.67883 25.9785 12.9927 25.9785Z" fill="#1759CA"/>
<path d="M23.3782 25.2418C25.3782 25.2418 26.9987 23.6686 26.9987 21.7269C26.9987 19.7851 25.3782 18.2119 23.3782 18.2119C21.3782 18.2119 19.7578 19.7851 19.7578 21.7269C19.7578 23.6686 21.3782 25.2418 23.3782 25.2418Z" fill="#1759CA"/>
<path d="M14.1393 13.5914C15.3729 13.5914 16.3802 12.6205 16.3802 11.4158C16.3802 10.2111 15.3802 9.24023 14.1393 9.24023C12.9057 9.24023 11.8984 10.2111 11.8984 11.4158C11.8984 12.6205 12.8984 13.5914 14.1393 13.5914Z" fill="#1759CA"/>
<path d="M21.9781 17.4535C24.6643 17.4535 26.8467 15.3346 26.8467 12.7268C26.8467 10.1189 24.6643 8 21.9781 8C19.292 8 17.1095 10.1189 17.1095 12.7268C17.1022 15.3417 19.2847 17.4535 21.9781 17.4535Z" fill="#1759CA"/>
</g>
<defs>
<clipPath id="clip0_10162_184">
<rect width="20" height="18" fill="white" transform="translate(7 8)"/>
</clipPath>
</defs>
</svg>
